HIERARCHY
ROOT Hips
{
	OFFSET 0.000000 0.000000 0.000000
	CHANNELS 6 Xposition Yposition Zposition Zrotation Yrotation Xrotation 
	JOINT LHipJoint
	{
		OFFSET 0.000000 0.000000 0.000000
		CHANNELS 3 Zrotation Yrotation Xrotation
		JOINT LeftUpLeg
		{
			OFFSET 1.363060 -1.794630 0.839290
			CHANNELS 3 Zrotation Yrotation Xrotation
			JOINT LeftLeg
			{
				OFFSET 2.448110 -6.726130 0.000000
				CHANNELS 3 Zrotation Yrotation Xrotation
				JOINT LeftFoot
				{
					OFFSET 2.562200 -7.039590 0.000000
					CHANNELS 3 Zrotation Yrotation Xrotation
					JOINT LeftToeBase
					{
						OFFSET 0.157640 -0.433110 2.322550
						CHANNELS 3 Zrotation Yrotation Xrotation
						End Site
						{
							OFFSET 0.000000 0.000000 0.000000
						}
					}
				}
			}
		}
	}
	JOINT RHipJoint
	{
		OFFSET 0.000000 0.000000 0.000000
		CHANNELS 3 Zrotation Yrotation Xrotation
		JOINT RightUpLeg
		{
			OFFSET -1.305520 -1.794630 0.839290
			CHANNELS 3 Zrotation Yrotation Xrotation
			JOINT RightLeg
			{
				OFFSET -2.542530 -6.985550 0.000000
				CHANNELS 3 Zrotation Yrotation Xrotation
				JOINT RightFoot
				{
					OFFSET -2.568260 -7.056230 0.000000
					CHANNELS 3 Zrotation Yrotation Xrotation
					JOINT RightToeBase
					{
						OFFSET -0.164730 -0.452590 2.363150
						CHANNELS 3 Zrotation Yrotation Xrotation
						End Site
						{
							OFFSET 0.000000 0.000000 0.000000
						}
					}
				}
			}
		}
	}
	JOINT LowerBack
	{
		OFFSET 0.000000 0.000000 0.000000
		CHANNELS 3 Zrotation Yrotation Xrotation
		JOINT Spine
		{
			OFFSET 0.028270 2.035590 -0.193380
			CHANNELS 3 Zrotation Yrotation Xrotation
			JOINT Spine1
			{
				OFFSET 0.056720 2.048850 -0.042750
				CHANNELS 3 Zrotation Yrotation Xrotation
				JOINT Neck
				{
					OFFSET 0.000000 0.000000 0.000000
					CHANNELS 3 Zrotation Yrotation Xrotation
					JOINT Neck1
					{
						OFFSET -0.054170 1.746240 0.172020
						CHANNELS 3 Zrotation Yrotation Xrotation
						JOINT Head
						{
							OFFSET 0.104070 1.761360 -0.123970
							CHANNELS 3 Zrotation Yrotation Xrotation
							End Site
							{
								OFFSET 0.000000 0.000000 0.000000
							}
						}
					}
				}
				JOINT LeftShoulder
				{
					OFFSET 0.000000 0.000000 0.000000
					CHANNELS 3 Zrotation Yrotation Xrotation
					JOINT LeftArm
					{
						OFFSET 3.362410 1.200890 -0.311210
						CHANNELS 3 Zrotation Yrotation Xrotation
						JOINT LeftForeArm
						{
							OFFSET 4.983000 -0.000000 -0.000000
							CHANNELS 3 Zrotation Yrotation Xrotation
							JOINT LeftHand
							{
								OFFSET 3.483560 -0.000000 -0.000000
								CHANNELS 3 Zrotation Yrotation Xrotation
								JOINT LeftFingerBase
								{
									OFFSET 0.000000 0.000000 0.000000
									CHANNELS 3 Zrotation Yrotation Xrotation
									JOINT LeftHandIndex1
									{
										OFFSET 0.715260 -0.000000 -0.000000
										CHANNELS 3 Zrotation Yrotation Xrotation
										End Site
										{
											OFFSET 0.000000 0.000000 0.000000
										}
									}
								}
								JOINT LThumb
								{
									OFFSET 0.000000 0.000000 0.000000
									CHANNELS 3 Zrotation Yrotation Xrotation
									End Site
									{
										OFFSET 0.000000 0.000000 0.000000
									}
								}
							}
						}
					}
				}
				JOINT RightShoulder
				{
					OFFSET 0.000000 0.000000 0.000000
					CHANNELS 3 Zrotation Yrotation Xrotation
					JOINT RightArm
					{
						OFFSET -3.136600 1.374050 -0.404650
						CHANNELS 3 Zrotation Yrotation Xrotation
						JOINT RightForeArm
						{
							OFFSET -5.241900 -0.000000 -0.000000
							CHANNELS 3 Zrotation Yrotation Xrotation
							JOINT RightHand
							{
								OFFSET -3.444170 -0.000000 -0.000000
								CHANNELS 3 Zrotation Yrotation Xrotation
								JOINT RightFingerBase
								{
									OFFSET 0.000000 0.000000 0.000000
									CHANNELS 3 Zrotation Yrotation Xrotation
									JOINT RightHandIndex1
									{
										OFFSET -0.622530 -0.000000 -0.000000
										CHANNELS 3 Zrotation Yrotation Xrotation
										End Site
										{
											OFFSET 0.000000 0.000000 0.000000
										}
									}
								}
								JOINT RThumb
								{
									OFFSET 0.000000 0.000000 0.000000
									CHANNELS 3 Zrotation Yrotation Xrotation
									End Site
									{
										OFFSET 0.000000 0.000000 0.000000
									}
								}
							}
						}
					}
				}
			}
		}
	}
}
MOTION
Frames: 7
Frame Time: 0.008333
-12.285284 17.200710 -0.784981 -11.985162 89.353310 22.076023 -11.769942 1.064454 -4.203504 -9.321688 8.967520 -28.653275 -1.860697 2.246340 35.865893 0.542184 1.622910 3.747948 0.282100 0.000000 -70.239700 6.819376 0.673270 0.756516 18.122142 4.171955 -58.718278 5.194956 -0.141536 16.703784 -0.739866 -0.416933 -8.806943 -0.333500 -0.000001 -59.821300 4.990336 -4.055118 6.947857 0.760768 -4.289542 -1.597616 -4.427210 -4.249601 -0.415901 6.015315 -17.111206 -7.577675 -1.873577 -0.123360 -0.320713 0.000000 0.000000 0.000000 13.178006 5.006470 -0.759939 -58.661208 -9.082875 6.291991 -178.614584 -63.758816 179.958387 4.576199 0.481853 -0.000945 -0.164380 0.550663 0.000000 0.000000 0.000000 0.000000 0.000000 0.000000 0.000000 2.041934 -13.643645 0.495026 68.783162 -32.165160 17.245823 179.935412 81.926006 179.963118 -8.092601 14.405911 -1.068388 0.091160 -0.458773 -0.000000 0.000000 0.000000 0.000000 0.000000 0.000000 0.000000 
-12.075837 17.190922 -0.766128 -18.574638 89.486383 15.338132 -11.662320 1.196325 -4.252700 -9.109487 9.159439 -28.355689 -1.776347 2.337520 36.694312 0.551363 1.484626 4.872563 0.262100 -0.000000 -69.775000 6.986940 0.763972 0.719454 18.351717 3.852739 -57.957738 5.150995 0.038898 15.635751 -0.968721 -1.454471 -8.740793 -0.417001 -0.000000 -58.862400 5.367771 -4.091345 7.005783 0.840947 -4.334297 -1.578083 -4.437099 -4.292954 -0.362018 6.004091 -17.371139 -7.649799 -1.871480 -0.122365 -0.339219 0.000000 0.000000 0.000000 13.578208 4.971765 -0.812537 -58.967250 -8.336654 6.844156 -178.644151 -63.444085 179.961717 4.246582 0.477830 -0.000947 -0.148597 0.547538 0.000000 0.000000 0.000000 0.000000 0.000000 0.000000 0.000000 2.003808 -13.880976 0.496823 69.280770 -32.082236 16.641129 179.929612 81.687794 179.962926 -8.074714 14.459502 -1.070186 0.091404 -0.462391 -0.000000 0.000000 0.000000 0.000000 0.000000 0.000000 0.000000 
-11.866614 17.169198 -0.746145 -25.146274 89.704647 8.592913 -11.545664 1.297554 -4.302837 -8.948692 9.317561 -28.106065 -1.673494 2.415965 37.720831 0.571937 1.460329 5.785497 0.257400 -0.000000 -68.771500 7.168109 0.820419 0.681018 18.445915 3.514937 -57.292493 5.060245 0.133981 15.006866 -1.198159 -2.474086 -8.688172 -0.500899 0.000000 -57.478900 5.717721 -4.156604 7.058714 0.918999 -4.400761 -1.556438 -4.449429 -4.356547 -0.300324 5.999901 -17.625591 -7.717353 -1.872724 -0.121693 -0.356137 0.000000 0.000000 0.000000 13.962940 4.941426 -0.863161 -59.312425 -7.578684 7.439277 -178.673649 -63.182565 179.965366 3.883187 0.473932 -0.000755 -0.131594 0.543839 0.000000 0.000000 0.000000 0.000000 0.000000 0.000000 0.000000 1.988248 -14.129775 0.489726 69.777194 -31.904440 16.078786 179.925580 81.477433 179.962519 -8.117667 14.503270 -1.079480 0.092679 -0.465963 -0.000000 0.000000 0.000000 0.000000 0.000000 0.000000 0.000000 
-11.657761 17.135422 -0.725349 -31.465872 89.998918 2.082259 -11.447294 1.366209 -4.351040 -8.842880 9.447739 -27.919679 -1.553433 2.485251 38.947708 0.603930 1.568934 6.468588 0.278000 0.000000 -67.243600 7.336729 0.837910 0.642628 18.403555 3.178704 -56.754164 4.932842 0.141345 14.853204 -1.415108 -3.418842 -8.652101 -0.579600 -0.000000 -55.708400 6.014663 -4.245449 7.100913 0.989277 -4.485125 -1.534775 -4.463324 -4.436776 -0.232916 6.003201 -17.873553 -7.781820 -1.877161 -0.121314 -0.371801 0.000000 0.000000 0.000000 14.328682 4.911423 -0.911754 -59.690599 -6.804844 8.071588 -178.703607 -62.975247 179.969123 3.506522 0.464478 -0.000866 -0.114059 0.539784 0.000000 0.000000 0.000000 0.000000 0.000000 0.000000 0.000000 1.995263 -14.385717 0.474995 70.270631 -31.642231 15.552757 179.922885 81.278634 179.961926 -8.206593 14.533800 -1.093969 0.094763 -0.469599 -0.000000 0.000000 0.000000 0.000000 0.000000 0.000000 0.000000 
-11.449507 17.089698 -0.704085 142.769851 89.658726 176.118799 -11.383985 1.408531 -4.394568 -8.787234 9.561336 -27.815287 -1.421841 2.552947 40.373315 0.647809 1.823011 6.903735 0.329900 0.000000 -65.227399 7.476397 0.823588 0.603212 18.237310 2.870675 -56.372110 4.778660 0.061619 15.217221 -1.609891 -4.241505 -8.658832 -0.644200 0.000000 -53.538400 6.245648 -4.344864 7.129787 1.047106 -4.577169 -1.514740 -4.479754 -4.523754 -0.162798 6.014766 -18.110701 -7.845322 -1.885027 -0.121213 -0.386797 0.000000 0.000000 0.000000 14.667772 4.882695 -0.957123 -60.090781 -6.013169 8.733568 -178.734679 -62.820477 179.972740 3.141702 0.446725 -0.001076 -0.096878 0.535530 0.000000 0.000000 0.000000 0.000000 0.000000 0.000000 0.000000 2.025881 -14.637781 0.454696 70.760749 -31.303872 15.055009 179.920914 81.077898 179.961176 -8.325707 14.549346 -1.111554 0.097442 -0.473438 -0.000000 0.000000 0.000000 0.000000 0.000000 0.000000 0.000000 
-11.242155 17.032611 -0.682884 137.841337 89.301921 170.986011 -11.357504 1.435028 -4.431658 -8.766144 9.669375 -27.800476 -1.285111 2.626832 41.986868 0.704054 2.227072 7.083920 0.414200 0.000000 -62.835800 7.584633 0.791045 0.553889 17.986969 2.595233 -56.165030 4.609628 -0.103663 16.135604 -1.772224 -4.888787 -8.754598 -0.680800 0.000000 -50.924101 6.419932 -4.441487 7.152349 1.091628 -4.666065 -1.497177 -4.501573 -4.607094 -0.097879 6.034252 -18.328479 -7.907089 -1.897793 -0.121517 -0.401027 0.000000 0.000000 0.000000 14.968215 4.837015 -0.996803 -60.498664 -5.178975 9.401495 -178.768047 -62.698946 179.975954 2.815895 0.419787 -0.001478 -0.080882 0.531193 0.000000 0.000000 0.000000 0.000000 0.000000 0.000000 0.000000 2.080309 -14.868542 0.433740 71.249752 -30.897774 14.572919 179.918999 80.866030 179.960341 -8.461187 14.554790 -1.130634 0.100546 -0.477691 -0.000000 0.000000 0.000000 0.000000 0.000000 0.000000 0.000000 
-11.036035 16.964554 -0.662144 133.821750 88.958628 166.770223 -11.359377 1.451504 -4.462145 -8.763058 9.779980 -27.898828 -1.147328 2.712101 43.790143 0.771702 2.771249 6.995344 0.525400 -0.000000 -60.100300 7.666671 0.751446 0.497361 17.679766 2.379610 -56.171023 4.429456 -0.352722 17.647053 -1.903216 -5.349772 -9.003924 -0.675500 -0.000000 -47.781200 6.559570 -4.522179 7.167098 1.124987 -4.739976 -1.482177 -4.533583 -4.675051 -0.038286 6.070754 -18.530857 -7.973702 -1.916675 -0.122221 -0.416458 0.000000 0.000000 0.000000 15.225949 4.790762 -1.029344 -60.909267 -4.330769 10.081512 -178.803617 -62.624503 179.978581 2.549305 0.389526 -0.001866 -0.066969 0.526731 0.000000 0.000000 0.000000 0.000000 0.000000 0.000000 0.000000 2.175493 -15.076333 0.412817 71.727872 -30.425226 14.095482 179.916231 80.627125 179.959441 -8.597883 14.536348 -1.148209 0.103932 -0.482337 -0.000000 0.000000 0.000000 0.000000 0.000000 0.000000 0.000000 
